<mxfile host="app.diagrams.net" modified="2023-07-27T06:46:18.487Z" agent="5.0 (X11; Linux x86_64) AppleWebKit/537.36 (KHTML, like Gecko) Chrome/114.0.0.0 Safari/537.36" etag="NtZyumOxlYPiP053kTKA" version="20.8.20" type="github">
  <diagram name="第 1 页" id="zxa8kRrm9WGZQYI5S8br">
    <mxGraphModel dx="794" dy="449" grid="1" gridSize="10" guides="1" tooltips="1" connect="1" arrows="1" fold="1" page="1" pageScale="1" pageWidth="827" pageHeight="1169" math="0" shadow="0">
      <root>
        <mxCell id="0" />
        <mxCell id="1" parent="0" />
        <mxCell id="cZb_3BcDoHcY1prgdpEC-1" value="" style="rounded=1;whiteSpace=wrap;html=1;fillColor=#D4E1F5;gradientColor=none;movable=1;resizable=1;rotatable=1;deletable=1;editable=1;locked=0;connectable=1;" vertex="1" parent="1">
          <mxGeometry x="70" y="120" width="420" height="270" as="geometry" />
        </mxCell>
        <mxCell id="cZb_3BcDoHcY1prgdpEC-4" value="jvm" style="rounded=0;whiteSpace=wrap;html=1;fillColor=default;strokeColor=default;" vertex="1" parent="1">
          <mxGeometry x="110" y="120" width="70" height="30" as="geometry" />
        </mxCell>
        <mxCell id="cZb_3BcDoHcY1prgdpEC-6" value="" style="rounded=0;whiteSpace=wrap;html=1;strokeColor=#2D7600;fontSize=15;fillColor=#60a917;fontColor=#ffffff;" vertex="1" parent="1">
          <mxGeometry x="100" y="180" width="120" height="160" as="geometry" />
        </mxCell>
        <mxCell id="cZb_3BcDoHcY1prgdpEC-7" value="User实例" style="rounded=0;whiteSpace=wrap;html=1;strokeColor=#b85450;fontSize=15;fillColor=#f8cecc;" vertex="1" parent="1">
          <mxGeometry x="100" y="180" width="120" height="30" as="geometry" />
        </mxCell>
        <mxCell id="cZb_3BcDoHcY1prgdpEC-27" value="" style="orthogonalLoop=1;jettySize=auto;html=1;fontSize=12;startArrow=none;startFill=0;exitX=1;exitY=0.75;exitDx=0;exitDy=0;dashed=1;" edge="1" parent="1" source="cZb_3BcDoHcY1prgdpEC-8" target="cZb_3BcDoHcY1prgdpEC-11">
          <mxGeometry relative="1" as="geometry" />
        </mxCell>
        <mxCell id="cZb_3BcDoHcY1prgdpEC-8" value="user 1" style="rounded=1;whiteSpace=wrap;html=1;strokeColor=default;fontSize=15;fillColor=default;" vertex="1" parent="1">
          <mxGeometry x="122.5" y="220" width="75" height="30" as="geometry" />
        </mxCell>
        <mxCell id="cZb_3BcDoHcY1prgdpEC-9" value="user 2" style="rounded=1;whiteSpace=wrap;html=1;strokeColor=default;fontSize=15;fillColor=default;" vertex="1" parent="1">
          <mxGeometry x="122.5" y="260" width="75" height="30" as="geometry" />
        </mxCell>
        <mxCell id="cZb_3BcDoHcY1prgdpEC-10" value="user 3" style="rounded=1;whiteSpace=wrap;html=1;strokeColor=default;fontSize=15;fillColor=default;" vertex="1" parent="1">
          <mxGeometry x="122.5" y="300" width="75" height="30" as="geometry" />
        </mxCell>
        <mxCell id="cZb_3BcDoHcY1prgdpEC-24" value="" style="orthogonalLoop=1;jettySize=auto;html=1;fontSize=12;entryX=1.011;entryY=0.865;entryDx=0;entryDy=0;entryPerimeter=0;startArrow=none;startFill=0;" edge="1" parent="1" source="cZb_3BcDoHcY1prgdpEC-11" target="cZb_3BcDoHcY1prgdpEC-6">
          <mxGeometry relative="1" as="geometry" />
        </mxCell>
        <mxCell id="cZb_3BcDoHcY1prgdpEC-11" value="User Class" style="ellipse;whiteSpace=wrap;html=1;strokeColor=default;fontSize=15;fillColor=default;" vertex="1" parent="1">
          <mxGeometry x="300" y="280" width="120" height="80" as="geometry" />
        </mxCell>
        <mxCell id="cZb_3BcDoHcY1prgdpEC-12" value="Classloader" style="rhombus;whiteSpace=wrap;html=1;strokeColor=#b85450;fontSize=15;fillColor=#f8cecc;" vertex="1" parent="1">
          <mxGeometry x="294" y="120" width="126" height="120" as="geometry" />
        </mxCell>
        <mxCell id="cZb_3BcDoHcY1prgdpEC-16" style="edgeStyle=orthogonalEdgeStyle;rounded=0;orthogonalLoop=1;jettySize=auto;html=1;fontSize=15;" edge="1" parent="1" target="cZb_3BcDoHcY1prgdpEC-12">
          <mxGeometry relative="1" as="geometry">
            <mxPoint x="357" y="80" as="sourcePoint" />
          </mxGeometry>
        </mxCell>
        <mxCell id="cZb_3BcDoHcY1prgdpEC-13" value="User.Class" style="rounded=0;whiteSpace=wrap;html=1;strokeColor=#d79b00;fontSize=15;fillColor=#ffe6cc;" vertex="1" parent="1">
          <mxGeometry x="300" y="20" width="120" height="60" as="geometry" />
        </mxCell>
        <mxCell id="cZb_3BcDoHcY1prgdpEC-15" value="文件" style="text;strokeColor=none;fillColor=none;align=left;verticalAlign=middle;spacingLeft=4;spacingRight=4;overflow=hidden;points=[[0,0.5],[1,0.5]];portConstraint=eastwest;rotatable=0;whiteSpace=wrap;html=1;fontSize=15;" vertex="1" parent="1">
          <mxGeometry x="430" y="20" width="80" height="30" as="geometry" />
        </mxCell>
        <mxCell id="cZb_3BcDoHcY1prgdpEC-17" value="" style="endArrow=classic;html=1;rounded=0;fontSize=15;exitX=0.5;exitY=1;exitDx=0;exitDy=0;" edge="1" parent="1" source="cZb_3BcDoHcY1prgdpEC-12" target="cZb_3BcDoHcY1prgdpEC-11">
          <mxGeometry width="50" height="50" relative="1" as="geometry">
            <mxPoint x="380" y="260" as="sourcePoint" />
            <mxPoint x="430" y="210" as="targetPoint" />
            <Array as="points">
              <mxPoint x="357" y="270" />
            </Array>
          </mxGeometry>
        </mxCell>
        <mxCell id="cZb_3BcDoHcY1prgdpEC-18" value="" style="endArrow=block;dashed=1;endFill=0;html=1;fontSize=15;entryX=1;entryY=0.5;entryDx=0;entryDy=0;entryPerimeter=0;edgeStyle=entityRelationEdgeStyle;" edge="1" parent="1" source="cZb_3BcDoHcY1prgdpEC-11" target="cZb_3BcDoHcY1prgdpEC-12">
          <mxGeometry width="160" relative="1" as="geometry">
            <mxPoint x="330" y="240" as="sourcePoint" />
            <mxPoint x="490" y="240" as="targetPoint" />
          </mxGeometry>
        </mxCell>
        <mxCell id="cZb_3BcDoHcY1prgdpEC-19" value="加载初始化" style="text;strokeColor=none;fillColor=none;align=left;verticalAlign=middle;spacingLeft=4;spacingRight=4;overflow=hidden;points=[[0,0.5],[1,0.5]];portConstraint=eastwest;rotatable=0;whiteSpace=wrap;html=1;fontSize=12;" vertex="1" parent="1">
          <mxGeometry x="321" y="240" width="89" height="30" as="geometry" />
        </mxCell>
        <mxCell id="cZb_3BcDoHcY1prgdpEC-20" value="getClassLoader()" style="text;strokeColor=none;fillColor=none;align=left;verticalAlign=middle;spacingLeft=4;spacingRight=4;overflow=hidden;points=[[0,0.5],[1,0.5]];portConstraint=eastwest;rotatable=0;whiteSpace=wrap;html=1;fontSize=12;" vertex="1" parent="1">
          <mxGeometry x="400" y="220" width="120" height="30" as="geometry" />
        </mxCell>
        <mxCell id="cZb_3BcDoHcY1prgdpEC-25" value="List Item" style="text;strokeColor=none;fillColor=none;align=left;verticalAlign=middle;spacingLeft=4;spacingRight=4;overflow=hidden;points=[[0,0.5],[1,0.5]];portConstraint=eastwest;rotatable=0;whiteSpace=wrap;html=1;fontSize=12;" vertex="1" parent="1">
          <mxGeometry x="370" y="210" width="80" height="30" as="geometry" />
        </mxCell>
        <mxCell id="cZb_3BcDoHcY1prgdpEC-26" value="实例化" style="text;strokeColor=none;fillColor=none;align=left;verticalAlign=middle;spacingLeft=4;spacingRight=4;overflow=hidden;points=[[0,0.5],[1,0.5]];portConstraint=eastwest;rotatable=0;whiteSpace=wrap;html=1;fontSize=12;" vertex="1" parent="1">
          <mxGeometry x="230" y="320" width="80" height="30" as="geometry" />
        </mxCell>
        <mxCell id="cZb_3BcDoHcY1prgdpEC-28" value="getClass()" style="text;strokeColor=none;fillColor=none;align=left;verticalAlign=middle;spacingLeft=4;spacingRight=4;overflow=hidden;points=[[0,0.5],[1,0.5]];portConstraint=eastwest;rotatable=0;whiteSpace=wrap;html=1;fontSize=12;" vertex="1" parent="1">
          <mxGeometry x="220" y="250" width="80" height="30" as="geometry" />
        </mxCell>
      </root>
    </mxGraphModel>
  </diagram>
</mxfile>
